<svg xmlns="http://www.w3.org/2000/svg" width="487" height="222" fill="none" viewBox="0 0 487 222">
  <path fill="#091E42" d="M232.672 34.094c1.076-1.825 2.597-3.276 4.563-4.352 1.965-1.076 4.282-1.615 6.949-1.615 3.136 0 5.967.82 8.494 2.457 2.574 1.638 4.587 3.978 6.037 7.02 1.498 3.042 2.247 6.599 2.247 10.67 0 4.072-.749 7.652-2.247 10.74-1.45 3.043-3.463 5.383-6.037 7.02-2.527 1.638-5.358 2.457-8.494 2.457-2.667 0-4.984-.538-6.949-1.614-1.919-1.076-3.44-2.527-4.563-4.352v24.288h-13.759V28.62h13.759v5.475Zm14.32 14.18c0-2.574-.702-4.563-2.106-5.967-1.357-1.45-3.042-2.176-5.054-2.176-2.012 0-3.72.726-5.124 2.176-1.358 1.451-2.036 3.44-2.036 5.967 0 2.574.678 4.587 2.036 6.037 1.404 1.451 3.112 2.176 5.124 2.176 2.012 0 3.697-.725 5.054-2.176 1.404-1.497 2.106-3.51 2.106-6.037Zm32.691-12.706c1.544-2.246 3.416-4.024 5.616-5.335 2.199-1.31 4.562-1.965 7.09-1.965v14.671h-3.861c-2.995 0-5.218.585-6.669 1.755-1.451 1.17-2.176 3.206-2.176 6.107V68h-13.759V28.619h13.759v6.95Zm54.562 12.285c0 1.076-.07 2.153-.21 3.23h-26.044c.141 2.152.726 3.767 1.755 4.843 1.077 1.03 2.434 1.544 4.072 1.544 2.293 0 3.931-1.03 4.914-3.088h14.671a17.226 17.226 0 0 1-3.58 7.3c-1.732 2.106-3.931 3.767-6.599 4.984-2.667 1.217-5.616 1.825-8.845 1.825-3.884 0-7.347-.819-10.389-2.457-2.995-1.638-5.359-3.977-7.09-7.02-1.685-3.041-2.527-6.621-2.527-10.74 0-4.118.842-7.675 2.527-10.67 1.685-3.042 4.025-5.382 7.02-7.02 3.042-1.638 6.528-2.457 10.459-2.457 3.885 0 7.324.796 10.319 2.387 2.996 1.591 5.335 3.884 7.02 6.88 1.685 2.948 2.527 6.434 2.527 10.46Zm-14.039-3.44c0-1.684-.562-2.995-1.685-3.93-1.123-.983-2.527-1.475-4.212-1.475-1.685 0-3.065.468-4.142 1.404-1.076.89-1.778 2.223-2.106 4.001h12.145Zm44.731-16.145c4.539 0 8.143 1.52 10.81 4.563 2.668 2.995 4.002 7.066 4.002 12.214V68H365.99V46.87c0-2.246-.585-4.001-1.755-5.264-1.17-1.31-2.738-1.966-4.703-1.966-2.06 0-3.674.655-4.844 1.965-1.17 1.264-1.755 3.019-1.755 5.265V68h-13.759V28.619h13.759v5.616c1.217-1.779 2.855-3.206 4.914-4.282 2.059-1.124 4.422-1.685 7.09-1.685Zm19.413 20.006c0-4.071.725-7.628 2.176-10.67 1.498-3.042 3.533-5.382 6.107-7.02 2.574-1.638 5.429-2.457 8.564-2.457 2.528 0 4.774.539 6.739 1.615 2.013 1.03 3.581 2.457 4.704 4.282v-17.97h13.829V68H412.64v-5.475c-1.077 1.825-2.598 3.276-4.563 4.352-1.966 1.076-4.282 1.614-6.95 1.614-3.135 0-5.99-.819-8.564-2.457-2.527-1.638-4.539-3.977-6.037-7.02-1.451-3.088-2.176-6.668-2.176-10.74Zm28.36 0c0-2.527-.702-4.516-2.106-5.967-1.357-1.45-3.042-2.176-5.054-2.176-2.059 0-3.768.726-5.125 2.176-1.357 1.404-2.035 3.393-2.035 5.967 0 2.527.678 4.54 2.035 6.037 1.357 1.451 3.066 2.176 5.125 2.176 2.012 0 3.697-.725 5.054-2.176 1.404-1.45 2.106-3.463 2.106-6.037Zm18.651 0c0-4.071.725-7.628 2.176-10.67 1.497-3.042 3.51-5.382 6.037-7.02 2.574-1.638 5.429-2.457 8.564-2.457 2.714 0 5.054.539 7.02 1.615 1.965 1.076 3.486 2.527 4.563 4.352V28.62h13.759V68h-13.759v-5.475c-1.077 1.825-2.621 3.276-4.633 4.352-1.966 1.076-4.282 1.614-6.95 1.614-3.135 0-5.99-.819-8.564-2.457-2.527-1.638-4.54-3.977-6.037-7.02-1.451-3.088-2.176-6.668-2.176-10.74Zm28.36 0c0-2.527-.702-4.516-2.106-5.967-1.357-1.45-3.042-2.176-5.054-2.176-2.06 0-3.768.726-5.125 2.176-1.357 1.404-2.036 3.393-2.036 5.967 0 2.527.679 4.54 2.036 6.037 1.357 1.451 3.065 2.176 5.125 2.176 2.012 0 3.697-.725 5.054-2.176 1.404-1.45 2.106-3.463 2.106-6.037Zm-243.054 68.005c0-4.072.725-7.629 2.176-10.67 1.497-3.042 3.533-5.382 6.107-7.02 2.574-1.638 5.429-2.457 8.564-2.457 2.527 0 4.774.538 6.739 1.614 2.013 1.03 3.58 2.457 4.704 4.282v-17.97h13.829v51.946h-13.829v-5.475c-1.077 1.825-2.598 3.276-4.563 4.352-1.966 1.077-4.282 1.615-6.95 1.615-3.135 0-5.99-.819-8.564-2.457-2.527-1.638-4.54-3.978-6.037-7.02-1.451-3.089-2.176-6.669-2.176-10.74Zm28.36 0c0-2.527-.702-4.516-2.106-5.967-1.357-1.451-3.042-2.176-5.054-2.176-2.06 0-3.768.725-5.125 2.176-1.357 1.404-2.036 3.393-2.036 5.967 0 2.527.679 4.539 2.036 6.037 1.357 1.451 3.065 2.176 5.125 2.176 2.012 0 3.697-.725 5.054-2.176 1.404-1.451 2.106-3.463 2.106-6.037Zm58.523-.421c0 1.076-.07 2.152-.21 3.229h-26.044c.14 2.152.725 3.767 1.755 4.843 1.076 1.03 2.433 1.545 4.071 1.545 2.294 0 3.932-1.03 4.914-3.089h14.672a17.242 17.242 0 0 1-3.58 7.301c-1.732 2.106-3.931 3.767-6.599 4.984-2.668 1.216-5.616 1.825-8.845 1.825-3.884 0-7.347-.819-10.389-2.457-2.995-1.638-5.359-3.978-7.09-7.02-1.685-3.042-2.527-6.622-2.527-10.74 0-4.119.842-7.675 2.527-10.67 1.684-3.042 4.024-5.382 7.02-7.02 3.041-1.638 6.528-2.457 10.459-2.457 3.884 0 7.324.795 10.319 2.387 2.995 1.591 5.335 3.884 7.02 6.879 1.685 2.948 2.527 6.435 2.527 10.46Zm-14.04-3.44c0-1.685-.561-2.995-1.684-3.931-1.123-.983-2.527-1.474-4.212-1.474-1.685 0-3.065.468-4.142 1.404-1.076.889-1.778 2.222-2.106 4.001h12.144Zm35.746 24.078c-3.557 0-6.739-.585-9.547-1.755-2.761-1.217-4.96-2.855-6.598-4.914-1.592-2.106-2.481-4.469-2.668-7.09h13.338c.187 1.264.772 2.246 1.755 2.948.982.702 2.199 1.053 3.65 1.053 1.123 0 2.012-.234 2.668-.702.655-.468.982-1.076.982-1.825 0-.983-.538-1.708-1.614-2.176-1.077-.468-2.855-.983-5.335-1.544-2.808-.562-5.148-1.194-7.02-1.896-1.872-.702-3.51-1.848-4.914-3.439-1.357-1.592-2.036-3.744-2.036-6.459 0-2.34.632-4.446 1.896-6.318 1.263-1.918 3.112-3.44 5.545-4.562 2.481-1.124 5.452-1.685 8.915-1.685 5.148 0 9.196 1.263 12.145 3.79 2.948 2.528 4.656 5.85 5.124 9.969h-12.425c-.234-1.264-.796-2.223-1.685-2.878-.842-.702-1.989-1.053-3.439-1.053-1.124 0-1.989.21-2.598.631-.561.422-.842 1.007-.842 1.755 0 .936.538 1.662 1.614 2.176 1.077.468 2.808.96 5.195 1.475 2.855.608 5.218 1.287 7.09 2.035 1.919.749 3.58 1.966 4.984 3.651 1.451 1.638 2.176 3.884 2.176 6.739 0 2.293-.678 4.352-2.035 6.177-1.311 1.825-3.206 3.276-5.686 4.352-2.434 1.03-5.312 1.545-8.635 1.545Zm29.368-43.523c-2.433 0-4.399-.655-5.896-1.966-1.451-1.357-2.177-3.042-2.177-5.054 0-2.06.726-3.767 2.177-5.124 1.497-1.358 3.463-2.036 5.896-2.036 2.387 0 4.306.678 5.757 2.036 1.497 1.357 2.246 3.065 2.246 5.124 0 2.012-.749 3.697-2.246 5.054-1.451 1.31-3.37 1.966-5.757 1.966Zm6.809 3.65v39.381h-13.758v-39.38h13.758Zm21.665-.491c2.667 0 4.984.538 6.949 1.614 2.013 1.077 3.557 2.528 4.634 4.353v-5.476h13.758v38.96c0 3.697-.702 7.02-2.106 9.968-1.404 2.995-3.603 5.382-6.598 7.161-2.949 1.778-6.692 2.667-11.232 2.667-6.084 0-10.951-1.427-14.601-4.282-3.65-2.855-5.733-6.739-6.248-11.653h13.548c.281 1.264.983 2.246 2.106 2.948 1.124.702 2.574 1.053 4.353 1.053 4.68 0 7.02-2.62 7.02-7.862v-5.054c-1.077 1.825-2.621 3.276-4.634 4.352-1.965 1.077-4.282 1.615-6.949 1.615-3.136 0-5.99-.819-8.564-2.457-2.527-1.638-4.54-3.978-6.037-7.02-1.451-3.089-2.177-6.669-2.177-10.74 0-4.072.726-7.629 2.177-10.67 1.497-3.042 3.51-5.382 6.037-7.02 2.574-1.638 5.428-2.457 8.564-2.457Zm11.583 20.147c0-2.527-.702-4.516-2.106-5.967-1.358-1.451-3.042-2.176-5.055-2.176-2.059 0-3.767.725-5.124 2.176-1.357 1.404-2.036 3.393-2.036 5.967 0 2.527.679 4.539 2.036 6.037 1.357 1.451 3.065 2.176 5.124 2.176 2.013 0 3.697-.725 5.055-2.176 1.404-1.451 2.106-3.463 2.106-6.037Zm46.659-20.007c4.54 0 8.143 1.521 10.811 4.563 2.667 2.995 4.001 7.067 4.001 12.215v22.954h-13.759v-21.129c0-2.247-.585-4.002-1.755-5.265-1.17-1.31-2.737-1.966-4.703-1.966-2.059 0-3.674.656-4.844 1.966-1.169 1.263-1.754 3.018-1.754 5.265v21.129h-13.759v-39.38h13.759v5.615c1.216-1.778 2.854-3.206 4.913-4.282 2.06-1.123 4.423-1.685 7.09-1.685ZM235.69 202.307c-3.556 0-6.739-.585-9.547-1.755-2.761-1.217-4.96-2.855-6.598-4.914-1.591-2.106-2.481-4.47-2.668-7.09h13.338c.187 1.263.772 2.246 1.755 2.948.983.702 2.199 1.053 3.65 1.053 1.123 0 2.013-.234 2.668-.702.655-.468.983-1.076.983-1.825 0-.983-.539-1.708-1.615-2.176-1.076-.468-2.855-.983-5.335-1.545-2.808-.561-5.148-1.193-7.02-1.895-1.872-.702-3.51-1.849-4.914-3.44-1.357-1.591-2.036-3.744-2.036-6.458 0-2.34.632-4.446 1.896-6.318 1.263-1.919 3.112-3.439 5.545-4.563 2.481-1.123 5.453-1.684 8.916-1.684 5.147 0 9.196 1.263 12.144 3.79 2.948 2.527 4.656 5.85 5.124 9.968h-12.425c-.234-1.263-.795-2.222-1.684-2.878-.843-.702-1.989-1.053-3.44-1.053-1.123 0-1.989.211-2.597.632-.562.421-.843 1.006-.843 1.755 0 .936.538 1.661 1.615 2.176 1.076.468 2.808.96 5.194 1.474 2.855.609 5.218 1.287 7.09 2.036 1.919.749 3.58 1.966 4.984 3.65 1.451 1.638 2.177 3.885 2.177 6.739 0 2.294-.679 4.353-2.036 6.178-1.311 1.825-3.206 3.276-5.686 4.352-2.434 1.03-5.312 1.545-8.635 1.545Zm64.819-39.873-24.991 58.124h-14.952l9.406-20.428-16.145-37.696h15.303l8.283 22.323 8.003-22.323h15.093Zm19.674 39.873c-3.556 0-6.739-.585-9.547-1.755-2.761-1.217-4.96-2.855-6.598-4.914-1.591-2.106-2.481-4.47-2.668-7.09h13.338c.187 1.263.772 2.246 1.755 2.948.983.702 2.199 1.053 3.65 1.053 1.123 0 2.012-.234 2.668-.702.655-.468.982-1.076.982-1.825 0-.983-.538-1.708-1.614-2.176-1.077-.468-2.855-.983-5.335-1.545-2.808-.561-5.148-1.193-7.02-1.895-1.872-.702-3.51-1.849-4.914-3.44-1.357-1.591-2.036-3.744-2.036-6.458 0-2.34.632-4.446 1.896-6.318 1.263-1.919 3.112-3.439 5.545-4.563 2.481-1.123 5.452-1.684 8.915-1.684 5.148 0 9.196 1.263 12.145 3.79 2.948 2.527 4.656 5.85 5.124 9.968h-12.425c-.234-1.263-.795-2.222-1.685-2.878-.842-.702-1.989-1.053-3.439-1.053-1.123 0-1.989.211-2.598.632-.561.421-.842 1.006-.842 1.755 0 .936.538 1.661 1.615 2.176 1.076.468 2.807.96 5.194 1.474 2.855.609 5.218 1.287 7.09 2.036 1.919.749 3.58 1.966 4.984 3.65 1.451 1.638 2.176 3.885 2.176 6.739 0 2.294-.678 4.353-2.035 6.178-1.311 1.825-3.206 3.276-5.686 4.352-2.434 1.03-5.312 1.545-8.635 1.545Zm45.654-12.215v11.723h-5.967c-10.061 0-15.092-4.984-15.092-14.952v-12.987h-4.844v-11.442h4.844v-9.547h13.829v9.547h7.16v11.442h-7.16v13.198c0 1.076.234 1.848.702 2.316.515.468 1.357.702 2.527.702h4.001Zm43.235-8.424c0 1.077-.07 2.153-.21 3.229h-26.044c.141 2.153.726 3.768 1.755 4.844 1.076 1.03 2.434 1.544 4.072 1.544 2.293 0 3.931-1.029 4.913-3.088h14.672a17.22 17.22 0 0 1-3.58 7.3c-1.732 2.106-3.931 3.768-6.599 4.984-2.667 1.217-5.616 1.826-8.845 1.826-3.884 0-7.347-.819-10.389-2.457-2.995-1.638-5.359-3.978-7.09-7.02-1.685-3.042-2.527-6.622-2.527-10.741 0-4.118.842-7.675 2.527-10.67 1.685-3.042 4.025-5.381 7.02-7.019 3.042-1.638 6.528-2.457 10.459-2.457 3.884 0 7.324.795 10.319 2.386 2.995 1.592 5.335 3.885 7.02 6.88 1.685 2.948 2.527 6.435 2.527 10.459Zm-14.039-3.439c0-1.685-.562-2.996-1.685-3.932-1.123-.982-2.527-1.474-4.212-1.474-1.685 0-3.065.468-4.142 1.404-1.076.889-1.778 2.223-2.106 4.002h12.145Zm70.423-16.146c4.961 0 8.845 1.498 11.653 4.493 2.855 2.995 4.282 7.09 4.282 12.284v22.955h-13.759v-21.129c0-2.106-.585-3.744-1.755-4.914-1.17-1.17-2.761-1.755-4.773-1.755-2.012 0-3.604.585-4.774 1.755s-1.754 2.808-1.754 4.914v21.129h-13.759v-21.129c0-2.106-.585-3.744-1.755-4.914-1.123-1.17-2.691-1.755-4.704-1.755-2.059 0-3.673.585-4.843 1.755s-1.755 2.808-1.755 4.914v21.129h-13.759v-39.381h13.759v5.195c1.217-1.685 2.784-3.019 4.703-4.002 1.966-1.029 4.212-1.544 6.739-1.544 2.902 0 5.476.632 7.722 1.895 2.293 1.264 4.095 3.042 5.405 5.335 1.404-2.152 3.253-3.884 5.546-5.194 2.293-1.357 4.82-2.036 7.581-2.036Z"/>
  <circle cx="145.881" cy="77.876" r="53.745" fill="#F34700"/>
  <rect width="85.554" height="177.689" y="24.131" fill="#D7F3FF" rx="4.387"/>
  <rect width="107.491" height="61.423" x="92.135" y="140.396" fill="#FFAB00" rx="4.387"/>
</svg>
