<svg xmlns="http://www.w3.org/2000/svg" width="350" height="112" fill="none" viewBox="0 0 350 112">
  <path fill="#0A4872" d="M50.926 52.868V68.43c0 8.312-1.886 11.974-7.31 11.974-4.186 0-6.25-2.77-7.192-4.894v16.09h-5.896V41.489h5.896v4.305c.942-2.123 3.006-4.894 7.191-4.894 5.425 0 7.311 3.656 7.311 11.969zm-5.895-.886c0-3.715-1.06-5.776-4.01-5.776-3.24 0-4.597 2.654-4.597 6.073v16.748c0 3.42 1.355 6.072 4.598 6.072 2.948 0 4.009-2.063 4.009-5.776V51.982zM43.674 20.398H37.78v10.023h5.895V20.398zM25.078 24.513l-4.78 3.452 5.87 8.125 4.778-3.452-5.868-8.125zM56.403 24.516l-5.87 8.125 4.78 3.452 5.869-8.125-4.78-3.452zM90.555 46.435c2.072 0 3.882.41 5.432 1.232 1.549.821 2.744 1.979 3.584 3.472.858 1.475 1.288 3.183 1.288 5.124 0 1.923-.43 3.63-1.288 5.124-.84 1.493-2.044 2.65-3.612 3.472-1.55.821-3.351 1.232-5.404 1.232H83.19V46.435h7.364zm-.308 15.512c1.81 0 3.22-.495 4.228-1.484 1.008-.99 1.512-2.39 1.512-4.2s-.504-3.22-1.512-4.228c-1.008-1.008-2.418-1.512-4.228-1.512h-2.268v11.424h2.268zm27.735-3.92c0 .448-.028.915-.084 1.4h-10.836c.075.97.383 1.717.924 2.24.56.504 1.242.756 2.044.756 1.195 0 2.026-.504 2.492-1.512h5.096a6.894 6.894 0 01-1.428 2.772c-.672.821-1.521 1.465-2.548 1.932-1.026.467-2.174.7-3.444.7-1.53 0-2.893-.327-4.088-.98a6.975 6.975 0 01-2.8-2.8c-.672-1.213-1.008-2.632-1.008-4.256s.327-3.043.98-4.256a6.975 6.975 0 012.8-2.8c1.195-.653 2.567-.98 4.116-.98 1.512 0 2.856.317 4.032.952a6.743 6.743 0 012.744 2.716c.672 1.176 1.008 2.548 1.008 4.116zm-4.9-1.26c0-.821-.28-1.475-.84-1.96-.56-.485-1.26-.728-2.1-.728-.802 0-1.484.233-2.044.7-.541.467-.877 1.13-1.008 1.988h5.992zm13.502 9.548c-1.362 0-2.576-.233-3.64-.7-1.064-.467-1.904-1.101-2.52-1.904a5.12 5.12 0 01-1.036-2.744h4.732c.056.541.308.98.756 1.316.448.336.999.504 1.652.504.598 0 1.055-.112 1.372-.336.336-.243.504-.55.504-.924 0-.448-.233-.775-.7-.98-.466-.224-1.222-.467-2.268-.728-1.12-.261-2.053-.532-2.8-.812a5.038 5.038 0 01-1.932-1.372c-.541-.635-.812-1.484-.812-2.548 0-.896.243-1.708.728-2.436.504-.747 1.232-1.335 2.184-1.764.971-.43 2.119-.644 3.444-.644 1.96 0 3.5.485 4.62 1.456 1.139.97 1.792 2.259 1.96 3.864h-4.424c-.074-.541-.317-.97-.728-1.288-.392-.317-.914-.476-1.568-.476-.56 0-.989.112-1.288.336a.994.994 0 00-.448.868c0 .448.234.784.7 1.008.486.224 1.232.448 2.24.672 1.158.299 2.1.597 2.828.896.728.28 1.363.747 1.904 1.4.56.635.85 1.493.868 2.576a4.12 4.12 0 01-.784 2.464c-.504.71-1.241 1.27-2.212 1.68-.952.41-2.062.616-3.332.616zm11.386-17.472c-.84 0-1.531-.243-2.072-.728a2.468 2.468 0 01-.784-1.848c0-.747.261-1.363.784-1.848.541-.504 1.232-.756 2.072-.756.821 0 1.493.252 2.016.756.541.485.812 1.101.812 1.848 0 .728-.271 1.344-.812 1.848-.523.485-1.195.728-2.016.728zm2.38 1.624V66.09h-4.788V50.467h4.788zm9.125-.224c1.102 0 2.063.224 2.884.672.84.448 1.484 1.036 1.932 1.764v-2.212h4.788v15.596c0 1.437-.289 2.735-.868 3.892-.56 1.176-1.428 2.11-2.604 2.8-1.157.69-2.604 1.036-4.34 1.036-2.314 0-4.19-.55-5.628-1.652-1.437-1.083-2.258-2.557-2.464-4.424h4.732c.15.597.504 1.064 1.064 1.4.56.355 1.251.532 2.072.532.99 0 1.774-.29 2.352-.868.598-.56.896-1.465.896-2.716V63.85c-.466.728-1.11 1.325-1.932 1.792-.821.448-1.782.672-2.884.672-1.288 0-2.454-.327-3.5-.98-1.045-.672-1.876-1.615-2.492-2.828-.597-1.232-.896-2.65-.896-4.256 0-1.605.299-3.015.896-4.228.616-1.213 1.447-2.147 2.492-2.8 1.046-.653 2.212-.98 3.5-.98zm4.816 8.036c0-1.195-.336-2.137-1.008-2.828a3.185 3.185 0 00-2.408-1.036c-.952 0-1.764.345-2.436 1.036-.653.672-.98 1.605-.98 2.8 0 1.195.327 2.147.98 2.856.672.69 1.484 1.036 2.436 1.036s1.755-.345 2.408-1.036c.672-.69 1.008-1.633 1.008-2.828zm17.492-7.98c1.83 0 3.286.597 4.368 1.792 1.102 1.176 1.652 2.8 1.652 4.872v9.128h-4.76v-8.484c0-1.045-.27-1.857-.812-2.436-.541-.579-1.269-.868-2.184-.868-.914 0-1.642.29-2.184.868-.541.579-.812 1.39-.812 2.436v8.484h-4.788V50.467h4.788v2.072c.486-.69 1.139-1.232 1.96-1.624.822-.41 1.746-.616 2.772-.616zm21.833 15.988c-1.437 0-2.725-.233-3.864-.7-1.139-.467-2.053-1.157-2.744-2.072-.672-.915-1.027-2.016-1.064-3.304h5.096c.075.728.327 1.288.756 1.68.429.373.989.56 1.68.56.709 0 1.269-.159 1.68-.476.411-.336.616-.793.616-1.372 0-.485-.168-.887-.504-1.204a3.737 3.737 0 00-1.204-.784c-.467-.205-1.139-.439-2.016-.7-1.269-.392-2.305-.784-3.108-1.176-.803-.392-1.493-.97-2.072-1.736-.579-.765-.868-1.764-.868-2.996 0-1.83.663-3.257 1.988-4.284 1.325-1.045 3.052-1.568 5.18-1.568 2.165 0 3.911.523 5.236 1.568 1.325 1.027 2.035 2.464 2.128 4.312h-5.18c-.037-.635-.271-1.13-.7-1.484-.429-.373-.98-.56-1.652-.56-.579 0-1.045.159-1.4.476-.355.299-.532.737-.532 1.316 0 .635.299 1.13.896 1.484.597.355 1.531.737 2.8 1.148 1.269.43 2.296.84 3.08 1.232a5.852 5.852 0 012.072 1.708c.579.747.868 1.708.868 2.884 0 1.12-.289 2.137-.868 3.052-.56.915-1.381 1.643-2.464 2.184-1.083.541-2.361.812-3.836.812zm25.795-15.82l-9.8 23.044h-5.152l3.584-7.952-6.356-15.092h5.348l3.612 9.772 3.584-9.772h5.18zm7.807 15.848c-1.363 0-2.576-.233-3.64-.7-1.064-.467-1.904-1.101-2.52-1.904a5.12 5.12 0 01-1.036-2.744h4.732c.056.541.308.98.756 1.316.448.336.999.504 1.652.504.597 0 1.055-.112 1.372-.336.336-.243.504-.55.504-.924 0-.448-.233-.775-.7-.98-.467-.224-1.223-.467-2.268-.728-1.12-.261-2.053-.532-2.8-.812a5.023 5.023 0 01-1.932-1.372c-.541-.635-.812-1.484-.812-2.548 0-.896.243-1.708.728-2.436.504-.747 1.232-1.335 2.184-1.764.971-.43 2.119-.644 3.444-.644 1.96 0 3.5.485 4.62 1.456 1.139.97 1.792 2.259 1.96 3.864h-4.424c-.075-.541-.317-.97-.728-1.288-.392-.317-.915-.476-1.568-.476-.56 0-.989.112-1.288.336a.992.992 0 00-.448.868c0 .448.233.784.7 1.008.485.224 1.232.448 2.24.672 1.157.299 2.1.597 2.828.896.728.28 1.363.747 1.904 1.4.56.635.849 1.493.868 2.576a4.12 4.12 0 01-.784 2.464c-.504.71-1.241 1.27-2.212 1.68-.952.41-2.063.616-3.332.616zm17.685-4.284v4.06h-2.436c-1.736 0-3.089-.42-4.06-1.26-.97-.859-1.456-2.25-1.456-4.172v-6.216h-1.904v-3.976h1.904v-3.808h4.788v3.808h3.136v3.976h-3.136v6.272c0 .467.112.803.336 1.008.224.205.598.308 1.12.308h1.708zm17.115-4.004c0 .448-.028.915-.084 1.4h-10.836c.075.97.383 1.717.924 2.24.56.504 1.242.756 2.044.756 1.195 0 2.026-.504 2.492-1.512h5.096a6.894 6.894 0 01-1.428 2.772c-.672.821-1.521 1.465-2.548 1.932-1.026.467-2.174.7-3.444.7-1.53 0-2.893-.327-4.088-.98a6.975 6.975 0 01-2.8-2.8c-.672-1.213-1.008-2.632-1.008-4.256s.327-3.043.98-4.256a6.975 6.975 0 012.8-2.8c1.195-.653 2.567-.98 4.116-.98 1.512 0 2.856.317 4.032.952a6.743 6.743 0 012.744 2.716c.672 1.176 1.008 2.548 1.008 4.116zm-4.9-1.26c0-.821-.28-1.475-.84-1.96-.56-.485-1.26-.728-2.1-.728-.802 0-1.484.233-2.044.7-.541.467-.877 1.13-1.008 1.988h5.992zm27.082-6.468c1.942 0 3.482.588 4.62 1.764 1.158 1.176 1.736 2.81 1.736 4.9v9.128h-4.76v-8.484c0-1.008-.27-1.783-.812-2.324-.522-.56-1.25-.84-2.184-.84-.933 0-1.67.28-2.212.84-.522.541-.784 1.316-.784 2.324v8.484h-4.76v-8.484c0-1.008-.27-1.783-.812-2.324-.522-.56-1.25-.84-2.184-.84-.933 0-1.67.28-2.212.84-.522.541-.784 1.316-.784 2.324v8.484h-4.788V50.467h4.788v1.96a5.009 5.009 0 011.904-1.54c.784-.392 1.671-.588 2.66-.588 1.176 0 2.222.252 3.136.756a5.388 5.388 0 012.184 2.156c.542-.859 1.279-1.559 2.212-2.1a5.98 5.98 0 013.052-.812z"/>
</svg>
