<svg xmlns="http://www.w3.org/2000/svg" width="350" height="150" fill="none" viewBox="0 0 350 150">
  <path fill="#0A4872" d="M66.856 70.386v28.773c0 15.365-3.487 22.137-13.517 22.137-7.737 0-11.553-5.123-13.295-9.048v29.747h-10.9V49.348h10.9v7.959c1.742-3.925 5.558-9.048 13.295-9.048 10.03 0 13.517 6.758 13.517 22.127zm-10.9-1.638c0-6.868-1.96-10.678-7.411-10.678-5.99 0-8.501 4.906-8.501 11.227v30.963c0 6.321 2.505 11.225 8.5 11.225 5.452 0 7.413-3.813 7.413-10.678v-32.06zM53.449 10.358h-10.9v18.53h10.9v-18.53zM19.068 17.965l-8.836 6.381 10.85 15.022 8.836-6.382-10.85-15.021zM76.98 17.97L66.13 32.993l8.835 6.382 10.85-15.022-8.836-6.381zM138.08 32.16c3.552 0 6.656.72 9.312 2.16 2.688 1.408 4.752 3.392 6.192 5.952 1.44 2.56 2.16 5.488 2.16 8.784 0 3.264-.736 6.176-2.208 8.736-1.44 2.56-3.504 4.576-6.192 6.048-2.656 1.44-5.744 2.16-9.264 2.16h-13.392V32.16h13.392zm-.72 25.536c2.752 0 4.912-.752 6.48-2.256 1.568-1.504 2.352-3.632 2.352-6.384 0-2.784-.784-4.928-2.352-6.432-1.568-1.536-3.728-2.304-6.48-2.304h-3.264v17.376h3.264zm47.873-5.472c0 .736-.048 1.472-.144 2.208h-17.808c.096 1.472.496 2.576 1.2 3.312.736.704 1.664 1.056 2.784 1.056 1.568 0 2.688-.704 3.36-2.112h10.032a11.779 11.779 0 01-2.448 4.992c-1.184 1.44-2.688 2.576-4.512 3.408-1.824.832-3.84 1.248-6.048 1.248-2.656 0-5.024-.56-7.104-1.68-2.048-1.12-3.664-2.72-4.848-4.8-1.152-2.08-1.728-4.528-1.728-7.344 0-2.816.576-5.248 1.728-7.296 1.152-2.08 2.752-3.68 4.8-4.8 2.08-1.12 4.464-1.68 7.152-1.68 2.656 0 5.008.544 7.056 1.632 2.048 1.088 3.648 2.656 4.8 4.704 1.152 2.016 1.728 4.4 1.728 7.152zm-9.6-2.352c0-1.152-.384-2.048-1.152-2.688-.768-.672-1.728-1.008-2.88-1.008s-2.096.32-2.832.96c-.736.608-1.216 1.52-1.44 2.736h8.304zm24.442 16.464c-2.432 0-4.608-.4-6.528-1.2-1.888-.832-3.392-1.952-4.512-3.36a8.939 8.939 0 01-1.824-4.848h9.12c.128.864.528 1.536 1.2 2.016.672.48 1.504.72 2.496.72.768 0 1.376-.16 1.824-.48.448-.32.672-.736.672-1.248 0-.672-.368-1.168-1.104-1.488-.736-.32-1.952-.672-3.648-1.056-1.92-.384-3.52-.816-4.8-1.296-1.28-.48-2.4-1.264-3.36-2.352-.928-1.088-1.392-2.56-1.392-4.416 0-1.6.432-3.04 1.296-4.32.864-1.312 2.128-2.352 3.792-3.12 1.696-.768 3.728-1.152 6.096-1.152 3.52 0 6.288.864 8.304 2.592 2.016 1.728 3.184 4 3.504 6.816h-8.496c-.16-.864-.544-1.52-1.152-1.968-.576-.48-1.36-.72-2.352-.72-.768 0-1.36.144-1.776.432-.384.288-.576.688-.576 1.2 0 .64.368 1.136 1.104 1.488.736.32 1.92.656 3.552 1.008 1.952.416 3.568.88 4.848 1.392 1.312.512 2.448 1.344 3.408 2.496.992 1.12 1.488 2.656 1.488 4.608a6.901 6.901 0 01-1.392 4.224c-.896 1.248-2.192 2.24-3.888 2.976-1.664.704-3.632 1.056-5.904 1.056zm20.081-29.76c-1.664 0-3.008-.448-4.032-1.344-.992-.928-1.488-2.08-1.488-3.456 0-1.408.496-2.576 1.488-3.504 1.024-.928 2.368-1.392 4.032-1.392 1.632 0 2.944.464 3.936 1.392 1.024.928 1.536 2.096 1.536 3.504 0 1.376-.512 2.528-1.536 3.456-.992.896-2.304 1.344-3.936 1.344zm4.656 2.496V66h-9.408V39.072h9.408zm14.814-.336c1.824 0 3.408.368 4.752 1.104 1.376.736 2.432 1.728 3.168 2.976v-3.744h9.408v26.64c0 2.528-.48 4.8-1.44 6.816-.96 2.048-2.464 3.68-4.512 4.896-2.016 1.216-4.576 1.824-7.68 1.824-4.16 0-7.488-.976-9.984-2.928-2.496-1.952-3.92-4.608-4.272-7.968h9.264c.192.864.672 1.536 1.44 2.016.768.48 1.76.72 2.976.72 3.2 0 4.8-1.792 4.8-5.376v-3.456c-.736 1.248-1.792 2.24-3.168 2.976-1.344.736-2.928 1.104-4.752 1.104-2.144 0-4.096-.56-5.856-1.68-1.728-1.12-3.104-2.72-4.128-4.8-.992-2.112-1.488-4.56-1.488-7.344 0-2.784.496-5.216 1.488-7.296 1.024-2.08 2.4-3.68 4.128-4.8 1.76-1.12 3.712-1.68 5.856-1.68zm7.92 13.776c0-1.728-.48-3.088-1.44-4.08-.928-.992-2.08-1.488-3.456-1.488-1.408 0-2.576.496-3.504 1.488-.928.96-1.392 2.32-1.392 4.08 0 1.728.464 3.104 1.392 4.128.928.992 2.096 1.488 3.504 1.488 1.376 0 2.528-.496 3.456-1.488.96-.992 1.44-2.368 1.44-4.128zm31.905-13.68c3.104 0 5.568 1.04 7.392 3.12 1.824 2.048 2.736 4.832 2.736 8.352V66h-9.408V51.552c0-1.536-.4-2.736-1.2-3.6-.8-.896-1.872-1.344-3.216-1.344-1.408 0-2.512.448-3.312 1.344-.8.864-1.2 2.064-1.2 3.6V66h-9.408V39.072h9.408v3.84c.832-1.216 1.952-2.192 3.36-2.928 1.408-.768 3.024-1.152 4.848-1.152zm-141.995 79.504c-3.936 0-7.168-.928-9.696-2.784-2.528-1.888-3.888-4.576-4.08-8.064h10.032c.096 1.184.448 2.048 1.056 2.592.608.544 1.392.816 2.352.816.864 0 1.568-.208 2.112-.624.576-.448.864-1.056.864-1.824 0-.992-.464-1.76-1.392-2.304-.928-.544-2.432-1.152-4.512-1.824-2.208-.736-4-1.44-5.376-2.112-1.344-.704-2.528-1.712-3.552-3.024-.992-1.344-1.488-3.088-1.488-5.232 0-2.176.544-4.032 1.632-5.568 1.088-1.568 2.592-2.752 4.512-3.552 1.92-.8 4.096-1.2 6.528-1.2 3.936 0 7.072.928 9.408 2.784 2.368 1.824 3.632 4.4 3.792 7.728h-10.224c-.032-1.024-.352-1.792-.96-2.304-.576-.512-1.328-.768-2.256-.768-.704 0-1.28.208-1.728.624-.448.416-.672 1.008-.672 1.776 0 .64.24 1.2.72 1.68.512.448 1.136.848 1.872 1.2.736.32 1.824.736 3.264 1.248 2.144.736 3.904 1.472 5.28 2.208 1.408.704 2.608 1.712 3.6 3.024 1.024 1.28 1.536 2.912 1.536 4.896 0 2.016-.512 3.824-1.536 5.424-.992 1.6-2.448 2.864-4.368 3.792-1.888.928-4.128 1.392-6.72 1.392zm45.51-27.264l-17.088 39.744h-10.224l6.432-13.968-11.04-25.776h10.464l5.664 15.264 5.472-15.264h10.32zm13.453 27.264c-2.432 0-4.608-.4-6.528-1.2-1.888-.832-3.392-1.952-4.512-3.36a8.939 8.939 0 01-1.824-4.848h9.12c.128.864.528 1.536 1.2 2.016.672.48 1.504.72 2.496.72.768 0 1.376-.16 1.824-.48.448-.32.672-.736.672-1.248 0-.672-.368-1.168-1.104-1.488-.736-.32-1.952-.672-3.648-1.056-1.92-.384-3.52-.816-4.8-1.296-1.28-.48-2.4-1.264-3.36-2.352-.928-1.088-1.392-2.56-1.392-4.416 0-1.6.432-3.04 1.296-4.32.864-1.312 2.128-2.352 3.792-3.12 1.696-.768 3.728-1.152 6.096-1.152 3.52 0 6.288.864 8.304 2.592 2.016 1.728 3.184 4 3.504 6.816h-8.496c-.16-.864-.544-1.52-1.152-1.968-.576-.48-1.36-.72-2.352-.72-.768 0-1.36.144-1.776.432-.384.288-.576.688-.576 1.2 0 .64.368 1.136 1.104 1.488.736.32 1.92.656 3.552 1.008 1.952.416 3.568.88 4.848 1.392 1.312.512 2.448 1.344 3.408 2.496.992 1.12 1.488 2.656 1.488 4.608a6.901 6.901 0 01-1.392 4.224c-.896 1.248-2.192 2.24-3.888 2.976-1.664.704-3.632 1.056-5.904 1.056zm31.217-8.352V118h-4.08c-6.88 0-10.32-3.408-10.32-10.224v-8.88h-3.312v-7.824h3.312v-6.528h9.456v6.528h4.896v7.824h-4.896v9.024c0 .736.16 1.264.48 1.584.352.32.928.48 1.728.48h2.736zm29.563-5.76c0 .736-.048 1.472-.144 2.208h-17.808c.096 1.472.496 2.576 1.2 3.312.736.704 1.664 1.056 2.784 1.056 1.568 0 2.688-.704 3.36-2.112h10.032a11.779 11.779 0 01-2.448 4.992c-1.184 1.44-2.688 2.576-4.512 3.408-1.824.832-3.84 1.248-6.048 1.248-2.656 0-5.024-.56-7.104-1.68-2.048-1.12-3.664-2.72-4.848-4.8-1.152-2.08-1.728-4.528-1.728-7.344 0-2.816.576-5.248 1.728-7.296 1.152-2.08 2.752-3.68 4.8-4.8 2.08-1.12 4.464-1.68 7.152-1.68 2.656 0 5.008.544 7.056 1.632 2.048 1.088 3.648 2.656 4.8 4.704 1.152 2.016 1.728 4.4 1.728 7.152zm-9.6-2.352c0-1.152-.384-2.048-1.152-2.688-.768-.672-1.728-1.008-2.88-1.008s-2.096.32-2.832.96c-.736.608-1.216 1.52-1.44 2.736h8.304zm48.154-11.04c3.392 0 6.048 1.024 7.968 3.072 1.952 2.048 2.928 4.848 2.928 8.4V118h-9.408v-14.448c0-1.44-.4-2.56-1.2-3.36-.8-.8-1.888-1.2-3.264-1.2s-2.464.4-3.264 1.2c-.8.8-1.2 1.92-1.2 3.36V118h-9.408v-14.448c0-1.44-.4-2.56-1.2-3.36-.768-.8-1.84-1.2-3.216-1.2-1.408 0-2.512.4-3.312 1.2-.8.8-1.2 1.92-1.2 3.36V118h-9.408V91.072h9.408v3.552c.832-1.152 1.904-2.064 3.216-2.736 1.344-.704 2.88-1.056 4.608-1.056 1.984 0 3.744.432 5.28 1.296a9.42 9.42 0 013.696 3.648c.96-1.472 2.224-2.656 3.792-3.552 1.568-.928 3.296-1.392 5.184-1.392z"/>
</svg>
