<svg width="353" height="528" viewBox="0 0 353 528" fill="none" xmlns="http://www.w3.org/2000/svg">
<path d="M53.6663 416.703V416.874V416.703Z" fill="url(#paint0_linear)"/>
<path d="M195.265 385.021C208.522 389.496 219.82 395.131 227.753 403.7C235.998 412.608 239.749 423.727 239.749 437.282C239.749 452.392 234.416 465.358 224.12 474.451C213.954 483.43 199.95 487.757 184.129 487.757C162.57 487.757 144.52 481.269 131.931 468.023C119.896 455.361 113.956 437.685 113.525 416.874H63.1048C63.1408 451.686 74.1507 479.133 94.0966 497.922C114.125 516.789 144.306 528 184.706 528C218.166 528 245.935 518.503 265.201 501.745C284.326 485.11 295.917 460.606 295.917 428.707C295.917 402.356 288.473 383.54 275.113 368.926C261.479 354.01 240.951 342.658 213.275 332.871L161.23 314.546C149.472 310.257 139.328 304.546 132.115 296.332C124.697 287.885 121.005 277.502 121.005 265.22C121.005 250.551 125.935 237.545 135.722 228.219C145.48 218.921 159.126 214.173 174.893 214.173C196.2 214.173 213.075 221.308 224.426 234.743C235.302 247.617 240.112 265.104 240.319 284.484H290.722V282.94C290.722 250.508 280.788 223.478 261.969 204.586C243.193 185.736 214.517 173.93 174.893 173.93C141.102 173.93 114.118 184.424 95.6566 201.675C77.2323 218.892 66.5683 243.507 66.5683 273.222C66.5683 301.303 74.6012 320.872 87.5095 335.291C100.617 349.933 119.503 360.108 142.674 367.852L142.705 367.862L195.265 385.021Z" fill="url(#paint1_linear)"/>
<path d="M201.656 0H150.844V85.282H201.656V0Z" fill="url(#paint2_linear)"/>
<path d="M41.3736 35.008L0.182617 64.3792L50.764 133.513L91.955 104.142L41.3736 35.008Z" fill="url(#paint3_linear)"/>
<path d="M260.776 104.171L311.357 35.037L352.548 64.4081L301.967 133.542L260.776 104.171Z" fill="url(#paint4_linear)"/>
<defs>
<linearGradient id="paint0_linear" x1="79" y1="22" x2="257" y2="528" gradientUnits="userSpaceOnUse">
<stop stop-color="#FFB78F"/>
<stop offset="0.735847" stop-color="#498DCC"/>
<stop offset="1" stop-color="#072E44"/>
</linearGradient>
<linearGradient id="paint1_linear" x1="79" y1="22" x2="257" y2="528" gradientUnits="userSpaceOnUse">
<stop stop-color="#FFB78F"/>
<stop offset="0.735847" stop-color="#498DCC"/>
<stop offset="1" stop-color="#072E44"/>
</linearGradient>
<linearGradient id="paint2_linear" x1="79" y1="22" x2="257" y2="528" gradientUnits="userSpaceOnUse">
<stop stop-color="#FFB78F"/>
<stop offset="0.735847" stop-color="#498DCC"/>
<stop offset="1" stop-color="#072E44"/>
</linearGradient>
<linearGradient id="paint3_linear" x1="79" y1="22" x2="257" y2="528" gradientUnits="userSpaceOnUse">
<stop stop-color="#FFB78F"/>
<stop offset="0.735847" stop-color="#498DCC"/>
<stop offset="1" stop-color="#072E44"/>
</linearGradient>
<linearGradient id="paint4_linear" x1="79" y1="22" x2="257" y2="528" gradientUnits="userSpaceOnUse">
<stop stop-color="#FFB78F"/>
<stop offset="0.735847" stop-color="#498DCC"/>
<stop offset="1" stop-color="#072E44"/>
</linearGradient>
</defs>
</svg>
